<svg xmlns="http://www.w3.org/2000/svg" width="760" height="360" viewBox="0 0 760 360" role="img" aria-label="Sekiro Homage epoch 100 workflow"><rect width="760" height="360" fill="#f7f3ec"/><rect x="0" y="0" width="7" height="360" fill="#168b8b"/><text x="24" y="30" font-family="Arial, sans-serif" font-size="20" font-weight="700" fill="#24313a">Sekiro Homage</text><text x="736" y="30" text-anchor="end" font-family="monospace" font-size="11" fill="#65757d">EPOCH 100</text><defs><marker id="arrow-main" markerWidth="8" markerHeight="8" refX="7" refY="4" orient="auto"><path d="M0,0 L8,4 L0,8 Z" fill="#168b8b"/></marker><marker id="arrow-dependency" markerWidth="8" markerHeight="8" refX="7" refY="4" orient="auto"><path d="M0,0 L8,4 L0,8 Z" fill="#d85f3d"/></marker></defs><g font-family="Arial, sans-serif" font-size="10.5" fill="#24313a"><path d="M 380.0 286.0 V 283.0 H 105.0 V 286.0" fill="none" stroke="#168b8b" stroke-width="2"  marker-end="url(#arrow-main)"/><path d="M 380.0 286.0 V 286.0 H 380.0 V 286.0" fill="none" stroke="#168b8b" stroke-width="2"  marker-end="url(#arrow-main)"/><path d="M 380.0 286.0 V 289.0 H 655.0 V 286.0" fill="none" stroke="#168b8b" stroke-width="2"  marker-end="url(#arrow-main)"/><path d="M 105.0 242.0 V 239.0 H 380.0 V 242.0" fill="none" stroke="#168b8b" stroke-width="2"  marker-end="url(#arrow-main)"/><path d="M 380.0 242.0 V 198.0 H 380.0 V 154.0" fill="none" stroke="#d85f3d" stroke-width="1.8" stroke-dasharray="6 5" marker-end="url(#arrow-dependency)"/><path d="M 655.0 242.0 V 201.0 H 380.0 V 154.0" fill="none" stroke="#d85f3d" stroke-width="1.8" stroke-dasharray="6 5" marker-end="url(#arrow-dependency)"/><path d="M 380.0 198.0 V 195.0 H 380.0 V 198.0" fill="none" stroke="#168b8b" stroke-width="2"  marker-end="url(#arrow-main)"/><path d="M 380.0 154.0 V 154.0 H 380.0 V 154.0" fill="none" stroke="#168b8b" stroke-width="2"  marker-end="url(#arrow-main)"/><path d="M 380.0 110.0 V 113.0 H 380.0 V 110.0" fill="none" stroke="#168b8b" stroke-width="2"  marker-end="url(#arrow-main)"/><g><rect x="314.0" y="286.0" width="132" height="44" rx="7" fill="#f8e8c7" stroke="#24313a" stroke-width="1.2"/><text x="380.0" y="305.0" text-anchor="middle">Accepted parent</text><text x="380.0" y="319.0" text-anchor="middle">shinobi duel</text></g><g><rect x="39.0" y="242.0" width="132" height="44" rx="7" fill="#d8eeee" stroke="#24313a" stroke-width="1.2"/><text x="105.0" y="261.0" text-anchor="middle">Combat child</text><text x="105.0" y="275.0" text-anchor="middle">arts + poise</text></g><g><rect x="314.0" y="242.0" width="132" height="44" rx="7" fill="#e5edd9" stroke="#24313a" stroke-width="1.2"/><text x="380.0" y="261.0" text-anchor="middle">Cinematic child</text><text x="380.0" y="275.0" text-anchor="middle">intro / victory</text></g><g><rect x="589.0" y="242.0" width="132" height="44" rx="7" fill="#ede0f4" stroke="#24313a" stroke-width="1.2"/><text x="655.0" y="261.0" text-anchor="middle">Asset child</text><text x="655.0" y="275.0" text-anchor="middle">chroma + props</text></g><g><rect x="314.0" y="198.0" width="132" height="44" rx="7" fill="#f6d8d3" stroke="#24313a" stroke-width="1.2"/><text x="380.0" y="217.0" text-anchor="middle">State check</text><text x="380.0" y="231.0" text-anchor="middle">HP / spirit</text></g><g><rect x="314.0" y="154.0" width="132" height="44" rx="7" fill="#f8e8c7" stroke="#24313a" stroke-width="1.2"/><text x="380.0" y="173.0" text-anchor="middle">Browser run</text><text x="380.0" y="187.0" text-anchor="middle">deflect + restart</text></g><g><rect x="314.0" y="110.0" width="132" height="44" rx="7" fill="#d8eeee" stroke="#24313a" stroke-width="1.2"/><text x="380.0" y="129.0" text-anchor="middle">Evidence merge</text><text x="380.0" y="143.0" text-anchor="middle">screens + state</text></g><g><rect x="314.0" y="66.0" width="132" height="44" rx="7" fill="#e5edd9" stroke="#24313a" stroke-width="1.2"/><text x="380.0" y="85.0" text-anchor="middle">Promote</text><text x="380.0" y="99.0" text-anchor="middle">final artifact</text></g></g><text x="24" y="342" font-family="Arial, sans-serif" font-size="10.5" fill="#65757d">Final workflow promotes only after mechanics, cinematic assets, UI state, and visual evidence agree.</text></svg>